<?xml version="1.0" encoding="UTF-8"?>
<svg version="1.1" xmlns="http://www.w3.org/2000/svg" width="75" height="97">
<path d="M0 0 C2.44227266 0.28129998 3.63478267 0.54149954 5.19056702 2.49465942 C5.51576828 3.13982513 5.84096954 3.78499084 6.17602539 4.44970703 C6.55528671 5.18559052 6.93454803 5.921474 7.32530212 6.67965698 C7.72455399 7.4891983 8.12380585 8.29873962 8.53515625 9.1328125 C9.17989647 10.39921066 9.17989647 10.39921066 9.83766174 11.69119263 C11.23929245 14.45388869 12.62030213 17.2262939 14 20 C14.94047053 21.86985512 15.88171671 23.73932031 16.82373047 25.60839844 C19.71288288 31.35507043 22.5772086 37.11392091 25.4375 42.875 C27.37135619 46.76939941 29.30793511 50.66242789 31.24609375 54.5546875 C31.68046249 55.43172333 32.11483124 56.30875916 32.56236267 57.21237183 C34.20895067 60.51888036 35.83940667 63.74065264 37.78540039 66.88330078 C39.38718327 69.67474954 39.22045912 71.84008592 39 75 C37.35439515 75.68804673 35.70849244 76.37538101 34.0625 77.0625 C32.97839844 77.52269531 31.89429687 77.98289062 30.77734375 78.45703125 C28.08735514 79.58020429 25.37452797 80.59531357 22.62890625 81.57421875 C11.81618193 85.37754619 11.81618193 85.37754619 5.0078125 94.27734375 C4.67523438 94.84582031 4.34265625 95.41429688 4 96 C3.01 96 2.02 96 1 96 C1 75.87 1 55.74 1 35 C1.66 35 2.32 35 3 35 C4.99594432 44.79735105 6.97587085 54.59715749 8.75 64.4375 C8.87737549 65.1277124 9.00475098 65.8179248 9.13598633 66.52905273 C9.77505094 70.13728226 10 73.29643365 10 77 C14.62 75.02 19.24 73.04 24 71 C23.22840951 67.14204756 22.64888058 64.92682319 20.95874023 61.5769043 C20.53837997 60.73641037 20.11801971 59.89591644 19.68492126 59.029953 C19.23073318 58.1370607 18.7765451 57.2441684 18.30859375 56.32421875 C17.84389175 55.3990596 17.37918976 54.47390045 16.90040588 53.52070618 C15.41839 50.57343467 13.92807328 47.63045136 12.4375 44.6875 C11.42978803 42.68712619 10.42262012 40.6864782 9.41601562 38.68554688 C6.95030922 33.78716836 4.47777863 28.89228201 2 24 C-6.41013955 39.91811325 -6.41013955 39.91811325 -14.625 55.9375 C-15.15222656 56.96294922 -15.67945312 57.98839844 -16.22265625 59.04492188 C-16.96708984 60.5212207 -16.96708984 60.5212207 -17.7265625 62.02734375 C-18.16564941 62.89093506 -18.60473633 63.75452637 -19.05712891 64.64428711 C-20.24772649 67.19603168 -20.24772649 67.19603168 -20 71 C-18.85660156 71.42152344 -17.71320312 71.84304687 -16.53515625 72.27734375 C-15.04421741 72.83058521 -13.55333489 73.38397847 -12.0625 73.9375 C-11.30775391 74.21529297 -10.55300781 74.49308594 -9.77539062 74.77929688 C-4.11328125 76.88671875 -4.11328125 76.88671875 -3 78 C-2.95936168 79.66617115 -2.957279 81.33388095 -3 83 C-6.01129353 84.57279962 -7.53984072 85.0893334 -10.92260742 84.43261719 C-11.97295166 84.05782227 -13.0232959 83.68302734 -14.10546875 83.296875 C-15.82733398 82.69166016 -15.82733398 82.69166016 -17.58398438 82.07421875 C-18.77314453 81.63722656 -19.96230469 81.20023437 -21.1875 80.75 C-22.38826172 80.32847656 -23.58902344 79.90695313 -24.82617188 79.47265625 C-33.69521664 76.30478336 -33.69521664 76.30478336 -36 74 C-35.67053506 69.46209423 -34.23344338 65.98357887 -32.19140625 61.95703125 C-31.61422852 60.81041016 -31.03705078 59.66378906 -30.44238281 58.48242188 C-29.81601391 57.2589821 -29.18938057 56.03567768 -28.5625 54.8125 C-27.92100095 53.54650175 -27.28005499 52.28022311 -26.63964844 51.01367188 C-22.69361951 43.22888978 -18.66979045 35.48531943 -14.56884766 27.78100586 C-10.96347004 20.99375133 -7.53194441 14.12350597 -4.13378906 7.23046875 C-3.73772461 6.42996094 -3.34166016 5.62945312 -2.93359375 4.8046875 C-2.4085022 3.73710205 -2.4085022 3.73710205 -1.87280273 2.64794922 C-1 1 -1 1 0 0 Z " fill="#100C1D" transform="translate(36,1)"/>
</svg>
