<?xml version="1.0" encoding="UTF-8"?>
<svg version="1.1" xmlns="http://www.w3.org/2000/svg" width="754" height="187">
<path d="M0 0 C3.32883956 1.02712619 4.11497499 2.18525866 5.98852539 5.20410156 C6.70378164 6.59338947 7.40590818 7.98948368 8.09765625 9.390625 C8.48442032 10.15044678 8.87118439 10.91026855 9.26966858 11.69311523 C10.54534742 14.20648847 11.80388785 16.72804296 13.0625 19.25 C13.95002107 21.00668443 14.8385442 22.76286292 15.72802734 24.51855469 C18.50195661 30.0040987 21.25244421 35.50121079 24 41 C24.87766412 42.7539577 25.75542909 44.50786494 26.63330078 46.26171875 C33.46208921 59.91006258 33.46208921 59.91006258 36.37915039 65.79394531 C40.52792434 74.15003367 44.78530185 82.43816233 49.14758301 90.68479919 C53.61726368 99.14435247 57.98874663 107.65193256 62.29931641 116.19360352 C63.19613923 117.96528279 64.09797803 119.73443045 65.00439453 121.5012207 C66.3400163 124.10580177 67.65987952 126.71783569 68.9765625 129.33203125 C69.38266754 130.11641068 69.78877258 130.9007901 70.20718384 131.7089386 C72.28935857 135.88898055 73.88338825 139.22910133 73 144 C70.36524961 147.1044729 68.04462479 148.66232188 64.23486328 150.02709961 C63.29353546 150.37103256 62.35220764 150.71496552 61.38235474 151.06932068 C60.3718808 151.42671829 59.36140686 151.78411591 58.3203125 152.15234375 C57.27479218 152.5343544 56.22927185 152.91636505 55.15206909 153.30995178 C50.68773072 154.9410763 46.21431177 156.54655165 41.74072266 158.15209961 C38.47182101 159.32958155 35.20853462 160.52173002 31.9453125 161.71484375 C30.93888702 162.07021713 29.93246155 162.42559052 28.89553833 162.79173279 C21.8018793 165.38989651 16.21204049 168.14813892 12.3671875 174.98828125 C11.95339844 175.69404297 11.53960937 176.39980469 11.11328125 177.12695312 C10.27748389 178.60212228 9.44420818 180.0787226 8.61328125 181.55664062 C8.20207031 182.25595703 7.79085937 182.95527344 7.3671875 183.67578125 C7.00737793 184.31427002 6.64756836 184.95275879 6.27685547 185.6105957 C5.64481201 186.29835083 5.64481201 186.29835083 5 187 C3.68 187 2.36 187 1 187 C0.22967819 158.30961007 -0.09458418 129.6367973 -0.0625 100.9375 C-0.06164398 100.16631332 -0.06078796 99.39512665 -0.05990601 98.60057068 C-0.04853564 89.06702255 -0.0284891 79.53351286 0 70 C0.99 69.67 1.98 69.34 3 69 C6.13129947 84.14827019 8.90430737 99.3512933 11.57421875 114.5871582 C12.25817985 118.48410565 12.94927798 122.37974752 13.640625 126.27539062 C14.07855569 128.76554929 14.51607139 131.25578099 14.953125 133.74609375 C15.26240936 135.48348061 15.26240936 135.48348061 15.57794189 137.25596619 C15.76523865 138.33221756 15.9525354 139.40846893 16.14550781 140.51733398 C16.31109192 141.45850571 16.47667603 142.39967743 16.64727783 143.36936951 C16.99311137 145.94862401 17.06433214 148.40129406 17 151 C21.27855862 149.43701543 25.54623558 147.84620613 29.8125 146.25 C31.02744141 145.8065625 32.24238281 145.363125 33.49414062 144.90625 C34.65751953 144.46796875 35.82089844 144.0296875 37.01953125 143.578125 C38.09307861 143.18012695 39.16662598 142.78212891 40.27270508 142.37207031 C43.24534093 140.87657184 44.62487228 140.04063841 46 137 C45.01115423 132.43773552 42.82541111 128.34814486 40.7890625 124.1640625 C40.30851913 123.17392654 40.30851913 123.17392654 39.81826782 122.16378784 C38.75778252 119.98224968 37.69156512 117.80357139 36.625 115.625 C35.87587793 114.08793869 35.12685653 112.55082832 34.37792969 111.01367188 C27.58466724 97.09688925 20.65705906 83.24694289 13.68994141 69.41650391 C12.88154292 67.8090666 12.07342843 66.20148643 11.265625 64.59375 C10.884133 63.8354892 10.50264099 63.07722839 10.10958862 62.29598999 C7.56765089 57.21513672 5.18332193 52.08494458 2.96386719 46.85351562 C2.13949104 44.82507294 2.13949104 44.82507294 0 44 C-0.25273682 44.83217041 -0.50547363 45.66434082 -0.76586914 46.52172852 C-2.14704315 50.41442608 -3.8729901 53.97869834 -5.74609375 57.65234375 C-6.11298813 58.38056839 -6.47988251 59.10879303 -6.8578949 59.85908508 C-7.64178862 61.41450054 -8.42738355 62.96905961 -9.21453857 64.52282715 C-11.27843345 68.59787875 -13.32894095 72.67964623 -15.37890625 76.76171875 C-15.78338989 77.56674835 -16.18787354 78.37177795 -16.60461426 79.20120239 C-20.21237829 86.3952227 -23.70304106 93.64111661 -27.13378906 100.92114258 C-29.45966738 105.83893401 -31.85507315 110.7109525 -34.33203125 115.5546875 C-34.89100098 116.65135742 -35.4499707 117.74802734 -36.02587891 118.87792969 C-37.10661899 120.98986667 -38.19570776 123.09755924 -39.29443359 125.20019531 C-39.7786377 126.14733398 -40.2628418 127.09447266 -40.76171875 128.0703125 C-41.19444092 128.90320801 -41.62716309 129.73610352 -42.07299805 130.59423828 C-43.13119898 133.34048847 -43.47710956 135.08834703 -43 138 C-40.05902532 141.09060799 -36.32157487 142.07889313 -32.3359375 143.375 C-31.03641505 143.80716153 -29.73693719 144.23945718 -28.4375 144.671875 C-26.39983119 145.33993083 -24.36109367 146.0045098 -22.32128906 146.66601562 C-20.34398571 147.31023075 -18.37117792 147.96696884 -16.3984375 148.625 C-15.21942871 149.00914062 -14.04041992 149.39328125 -12.82568359 149.7890625 C-10 151 -10 151 -8 154 C-7.34117647 160.14901961 -7.34117647 160.14901961 -9.5 162.9375 C-16.50861702 165.91616223 -23.43285391 163.2126537 -30.1953125 160.82421875 C-31.14638885 160.4983931 -32.09746521 160.17256744 -33.07736206 159.83686829 C-35.07780622 159.14901222 -37.0762505 158.4553152 -39.07275391 157.75610352 C-42.11844084 156.68979639 -45.16978571 155.64124374 -48.22265625 154.59570312 C-50.17222983 153.92290231 -52.12146075 153.24910758 -54.0703125 152.57421875 C-54.97669464 152.26159592 -55.88307678 151.94897308 -56.81692505 151.62687683 C-68.95305421 147.36558146 -68.95305421 147.36558146 -71.4375 144.125 C-72.85299829 138.77756202 -69.68503829 133.96007771 -67.31640625 129.3046875 C-66.94200912 128.55776642 -66.567612 127.81084534 -66.18186951 127.04129028 C-65.38519805 125.45466469 -64.58565166 123.86947985 -63.78344727 122.28564453 C-62.59251391 119.93425961 -61.40965393 117.57897379 -60.22851562 115.22265625 C-55.87277426 106.55574924 -51.41193486 97.94925494 -46.87710571 89.37487793 C-42.14701641 80.41557653 -37.55278197 71.38762601 -32.95684814 62.35897827 C-30.34584838 57.23101165 -27.72912968 52.10596318 -25.11328125 46.98046875 C-24.07241637 44.94059858 -23.03156333 42.90072237 -21.99072266 40.86083984 C-21.48913635 39.87790955 -20.98755005 38.89497925 -20.47076416 37.88226318 C-19.51619407 36.01158785 -18.56172058 34.14086322 -17.60736084 32.27008057 C-15.15024864 27.45427533 -12.68963541 22.64030013 -10.22244263 17.82965088 C-9.4951854 16.41008263 -8.76931724 14.98980183 -8.04489136 13.56878662 C-7.05692998 11.63124588 -6.06427821 9.69618435 -5.0703125 7.76171875 C-4.52133301 6.68881592 -3.97235352 5.61591309 -3.40673828 4.51049805 C-2 2 -2 2 0 0 Z " fill="#100C1D" transform="translate(221,0)"/>
<path d="M0 0 C1.30589333 -0.0129007 1.30589333 -0.0129007 2.63816833 -0.02606201 C3.59559937 -0.03032196 4.5530304 -0.03458191 5.53947449 -0.03897095 C7.04942238 -0.05123718 7.04942238 -0.05123718 8.58987427 -0.06375122 C11.93138529 -0.08862694 15.27285379 -0.10512609 18.61442566 -0.11953735 C19.75373724 -0.12486103 20.89304882 -0.13018471 22.06688499 -0.13566971 C28.09615278 -0.16240966 34.12539979 -0.18178263 40.15470886 -0.19619751 C46.38941943 -0.21285509 52.6236024 -0.25764036 58.85811329 -0.30856895 C63.64590072 -0.34218571 68.43356201 -0.35376884 73.22145653 -0.35942459 C75.52001163 -0.36615153 77.81855803 -0.38141076 80.11699867 -0.4053154 C83.33248326 -0.43685167 86.5465328 -0.43702068 89.76213074 -0.42959595 C91.18916824 -0.45420395 91.18916824 -0.45420395 92.64503479 -0.47930908 C97.23654909 -0.43585967 99.20083302 -0.34528331 102.93356323 2.54779053 C104.89716726 5.22517444 105.52742085 6.38639804 105.46989441 9.65390015 C105.48923035 10.7521814 105.48923035 10.7521814 105.50895691 11.87265015 C104.48458354 15.39167396 102.67267847 16.86389252 99.84489441 19.15390015 C96.9730317 19.64216776 94.69383572 19.82708188 91.82926941 19.78158569 C90.64053223 19.79249237 90.64053223 19.79249237 89.42778015 19.80361938 C86.81636051 19.82217447 84.20631412 19.80615944 81.59489441 19.7906189 C79.77554604 19.79866064 77.95620709 19.80917968 76.1368866 19.82206726 C71.35144492 19.85061054 66.56643636 19.85119245 61.78092957 19.84420776 C54.12170596 19.83688354 46.46262257 19.86824573 38.80351257 19.90665627 C36.13068182 19.91550048 33.45815419 19.91020718 30.7853241 19.90309143 C29.1437217 19.90647653 27.50212 19.91022598 25.86051941 19.91439819 C25.11959045 19.90870316 24.3786615 19.90300812 23.61528015 19.8971405 C19.59512243 19.92009572 16.42347255 20.2619066 12.84489441 22.15390015 C10.84059358 24.98864573 10.59668024 27.36064604 10.61442566 30.77890015 C10.61732605 32.08600952 10.61732605 32.08600952 10.62028503 33.41952515 C10.63253113 34.3218689 10.64477722 35.22421265 10.65739441 36.15390015 C10.65803894 37.0562439 10.65868347 37.95858765 10.65934753 38.88827515 C10.6855602 42.82600012 10.75592684 46.34767336 11.84489441 50.15390015 C18.20350004 52.55335148 24.3901572 52.43528707 31.1300869 52.42829514 C33.20284409 52.42732181 35.27509416 52.44036281 37.34777832 52.45727539 C43.2355319 52.50332712 49.1232263 52.52817383 55.01115417 52.53475952 C58.62450697 52.53977355 62.23731905 52.56400401 65.85048866 52.60008621 C67.22315539 52.60987475 68.59589651 52.61222125 69.96858788 52.60691452 C71.88530135 52.59984563 73.80205711 52.61921325 75.71867371 52.63973999 C77.35246223 52.64401505 77.35246223 52.64401505 79.01925659 52.64837646 C82.50466422 53.27193695 83.67079662 54.41870558 85.84489441 57.15390015 C87.26896091 61.06813757 87.25599608 64.25339173 85.53239441 68.02890015 C83.07611482 71.12199297 81.73111923 72.49577455 77.84489441 73.15390015 C75.78849257 73.24391679 73.72943719 73.27900845 71.67106628 73.27987671 C70.4229718 73.28368347 69.17487732 73.28749023 67.88896179 73.29141235 C67.22497879 73.29160622 66.56099579 73.29180008 65.87689209 73.29199982 C63.07586752 73.29542815 60.27507246 73.3168012 57.47412872 73.33723068 C52.2638633 73.37520372 47.05384939 73.40651103 41.84342957 73.40438843 C38.21396775 73.40360159 34.58535564 73.42694448 30.95611572 73.46627045 C29.57508158 73.47673106 28.19394938 73.47825387 26.81289673 73.4706192 C24.88148387 73.46100337 22.94999229 73.48494468 21.01872253 73.51034546 C19.92048157 73.51399109 18.8222406 73.51763672 17.6907196 73.52139282 C14.63925328 73.9290063 14.63925328 73.9290063 12.48939514 76.54786682 C10.73937936 79.3211094 10.35020307 80.64710836 10.38395691 83.8765564 C10.38975769 85.17883179 10.38975769 85.17883179 10.39567566 86.50741577 C10.42016785 87.40138062 10.44466003 88.29534546 10.46989441 89.21640015 C10.471828 90.56314819 10.471828 90.56314819 10.47380066 91.93710327 C10.44273896 97.87041065 10.44273896 97.87041065 12.84489441 103.15390015 C17.09482558 105.40156364 21.16485561 105.42949461 25.86051941 105.3934021 C26.65301086 105.39541626 27.44550232 105.39743042 28.26200867 105.39950562 C29.97693025 105.4030419 31.6918649 105.40229542 33.40678406 105.39772987 C36.12230926 105.39212481 38.83740926 105.40131402 41.55290222 105.41493225 C49.27134651 105.45201647 56.98964472 105.47058565 64.70817566 105.45932007 C69.43445021 105.45346816 74.16012416 105.47173018 78.88627625 105.50520897 C80.68516868 105.5131603 82.48412661 105.51188958 84.28300476 105.50118446 C86.79909086 105.48685207 89.31328758 105.50313044 91.82926941 105.5262146 C92.57019836 105.51444687 93.31112732 105.50267914 94.07450867 105.49055481 C98.0230107 105.56153743 99.69472208 106.03228698 102.80436707 108.55055237 C104.90931466 111.23608886 105.52882113 112.30686261 105.46989441 115.65390015 C105.48923035 116.7521814 105.48923035 116.7521814 105.50895691 117.87265015 C104.46089245 121.47305981 102.80120419 122.85753524 99.84489441 125.15390015 C96.50163863 125.89010356 93.22199445 125.82714911 89.80973816 125.78500366 C88.80266815 125.79215897 87.79559814 125.79931427 86.75801086 125.8066864 C83.43234258 125.82358162 80.10802068 125.80416491 76.78239441 125.7828064 C74.46981189 125.78363501 72.15722944 125.78609411 69.84465027 125.79011536 C64.9991736 125.79297394 60.15415901 125.77826552 55.3087616 125.75082397 C49.09765847 125.71674175 42.88738169 125.7227592 36.67623901 125.74148655 C31.90126153 125.75205491 27.12647633 125.74312006 22.35151672 125.72810173 C20.06138174 125.7229183 17.7712267 125.72340365 15.48109436 125.72964668 C12.28030717 125.73509667 9.08070306 125.71472927 5.88005066 125.68734741 C4.46008286 125.69713623 4.46008286 125.69713623 3.01142883 125.7071228 C-1.23774791 125.64531046 -3.54325657 125.53488924 -7.21980286 123.24555969 C-9.9955083 120.24559969 -10.28164436 118.64002026 -10.30227661 114.65711975 C-10.30943192 113.71079681 -10.31658722 112.76447388 -10.32395935 111.78947449 C-10.32664825 110.74788681 -10.32933716 109.70629913 -10.33210754 108.63314819 C-10.33867874 107.53873413 -10.34524994 106.44432007 -10.35202026 105.31674194 C-10.37178483 101.68303363 -10.38342236 98.04936668 -10.39338684 94.4156189 C-10.39746237 93.17701426 -10.4015379 91.93840961 -10.40573692 90.6622715 C-10.42445629 84.78417 -10.4390196 78.9060817 -10.44734889 73.02795762 C-10.45712061 66.24396969 -10.48343788 59.46030811 -10.52384979 52.67643517 C-10.55765427 46.79994183 -10.56949437 40.92355795 -10.57355309 35.04697609 C-10.578433 32.54748127 -10.59008661 30.04799028 -10.60859108 27.54855919 C-10.63286306 24.05305182 -10.632039 20.55840102 -10.62507629 17.06283569 C-10.63788635 16.02732071 -10.65069641 14.99180573 -10.66389465 13.9249115 C-10.63153582 9.47553677 -10.60763277 6.89512664 -8.25073242 3.03459167 C-5.34775904 0.42935807 -3.80017093 0.02791439 0 0 Z " fill="#100C1D" transform="translate(649.1551055908203,27.846099853515625)"/>
<path d="M0 0 C4.66468256 3.06353294 7.81080508 7.70869742 11.20068359 12.05761719 C13.55032801 15.00504787 16.03240967 17.83881313 18.5 20.6875 C22.8011125 25.67568471 27.0048934 30.72975998 31.15625 35.84375 C33.89302049 39.16436486 36.6910295 42.42796782 39.5 45.6875 C43.79853483 50.67552412 48.00294555 55.72652002 52.15234375 60.83984375 C55.41066552 64.79211758 58.75463094 68.6686598 62.11352539 72.53564453 C65.8571292 76.86578437 69.34164477 81.34186923 72.68359375 85.9921875 C74.41532521 87.94269195 74.41532521 87.94269195 77.16015625 88.0078125 C79.4551992 87.93385681 79.4551992 87.93385681 80.5 86.6875 C80.60376612 84.19418287 80.64361714 81.72766772 80.6418457 79.23364258 C80.64705734 78.06282135 80.64705734 78.06282135 80.65237427 76.86834717 C80.65974544 75.16700267 80.66508354 73.46564846 80.66866493 71.76429176 C80.67581347 69.06988805 80.6914692 66.37566826 80.71000671 63.68132019 C80.76254202 56.01828589 80.8104315 48.35534904 80.82592773 40.69213867 C80.83601937 36.00940221 80.86537882 31.32712313 80.90724754 26.64456749 C80.91955095 24.86047516 80.92468 23.07631818 80.92244911 21.29218483 C80.92009151 18.79040556 80.94229783 16.28993258 80.9699707 13.78833008 C80.96006859 12.6869294 80.96006859 12.6869294 80.94996643 11.5632782 C81.04171279 6.49788614 82.3071729 3.58902651 85.5 -0.3125 C88.70173254 -1.91336627 92.02577059 -1.81167089 95.5 -1.3125 C98.3100346 0.48113911 100.00940468 1.70630935 101.5 4.6875 C101.60029717 6.13091672 101.63938525 7.5788196 101.64717102 9.0256958 C101.65432632 9.93691696 101.66148163 10.84813812 101.66885376 11.78697205 C101.67154266 12.78958572 101.67423157 13.7921994 101.67700195 14.82519531 C101.68357315 15.8789888 101.69014435 16.93278229 101.69691467 18.01850891 C101.7166794 21.51754827 101.72831749 25.01654465 101.73828125 28.515625 C101.74235678 29.70885124 101.7464323 30.90207748 101.75063133 32.1314621 C101.77150582 38.44717741 101.78580146 44.76287091 101.79516602 51.07861328 C101.80623201 57.60683937 101.84063061 64.13472475 101.88033772 70.66283035 C101.90646693 75.67798502 101.9148546 80.69305808 101.91844749 85.70827484 C101.92332315 88.11483816 101.93496481 90.5213976 101.95348549 92.92789459 C101.97779698 96.29628074 101.97692604 99.66377979 101.9699707 103.03222656 C101.98278076 104.02674332 101.99559082 105.02126007 102.00878906 106.0459137 C101.95536908 113.14286839 100.24805457 116.78241374 95.3125 122 C91.41363556 124.33931866 88.01881776 124.85919947 83.5 124.6875 C73.79894029 122.13458955 67.92828115 113.15191482 61.91015625 105.66796875 C59.35768867 102.5115137 56.75249609 99.40642649 54.125 96.3125 C53.43531128 95.49930298 53.43531128 95.49930298 52.73168945 94.66967773 C51.32190192 93.00829131 49.91111956 91.34775515 48.5 89.6875 C43.30780978 83.57861965 38.11876419 77.47239359 33.0625 71.25 C29.60725714 67.00357452 26.07298808 62.83456799 22.5 58.6875 C16.64655696 51.89264598 10.86242963 45.04070079 5.37890625 37.94140625 C3.69544547 35.60742607 3.69544547 35.60742607 1.4375 34.6875 C-0.54368971 34.51396584 -0.54368971 34.51396584 -2.09902954 35.70645142 C-4.23504321 38.72689117 -3.89784959 41.81999748 -3.85302734 45.38427734 C-3.85518753 46.16672318 -3.85734772 46.94916901 -3.85957336 47.75532532 C-3.86266144 49.45446189 -3.8590512 51.15362075 -3.84955978 52.85273361 C-3.83583778 55.54298881 -3.84224906 58.23250495 -3.85440063 60.92276001 C-3.8853864 68.57127693 -3.8804899 76.21962334 -3.86035156 83.86816406 C-3.84943263 88.54671549 -3.8626283 93.22471238 -3.89024734 97.9031868 C-3.89568809 99.68534627 -3.89162347 101.4675612 -3.87784958 103.24967575 C-3.85879499 105.74437605 -3.87020299 108.23726436 -3.88818359 110.73193359 C-3.87484482 111.4666539 -3.86150604 112.20137421 -3.84776306 112.95835876 C-3.91022263 116.8597126 -4.38297818 118.54121246 -6.85073853 121.62612915 C-9.91592091 124.011125 -11.63446082 124.60696793 -15.5 124.6875 C-19.50627007 123.66264022 -21.3656811 122.20912619 -23.5 118.6875 C-24.41690744 115.93677768 -24.62914656 114.30451353 -24.64044189 111.47029114 C-24.64615204 110.61107056 -24.65186218 109.75184998 -24.65774536 108.86659241 C-24.65942215 107.45693459 -24.65942215 107.45693459 -24.66113281 106.01879883 C-24.66858017 104.53049057 -24.66858017 104.53049057 -24.67617798 103.01211548 C-24.6908066 99.72291372 -24.6976036 96.43376023 -24.703125 93.14453125 C-24.70887688 90.85869851 -24.71463461 88.57286579 -24.72039795 86.28703308 C-24.73091062 81.4894488 -24.73675122 76.69188129 -24.74023438 71.89428711 C-24.74571269 65.75533123 -24.7697256 59.61659787 -24.79820633 53.47771168 C-24.81685937 48.7532843 -24.82203979 44.02891017 -24.82357025 39.30444908 C-24.82659243 37.04189528 -24.83460621 34.77934233 -24.84775543 32.51682472 C-24.86486758 29.34543742 -24.8629226 26.17458895 -24.85644531 23.00317383 C-24.87026749 21.60869774 -24.87026749 21.60869774 -24.8843689 20.18605042 C-24.84553031 14.09562586 -24.38658572 7.86842695 -20.08342361 3.12647724 C-14.03370947 -2.13256637 -7.36077854 -2.76029195 0 0 Z " fill="#100C1D" transform="translate(345.5,27.3125)"/>
<path d="M0 0 C0.99760849 -0.00846954 1.99521698 -0.01693909 3.02305603 -0.02566528 C6.30505275 -0.0489753 9.58657929 -0.05005915 12.86865234 -0.04882812 C15.1559569 -0.05593115 17.44325967 -0.06363036 19.7305603 -0.07189941 C24.51687582 -0.08532887 29.30302641 -0.08691886 34.08935547 -0.08105469 C40.22422428 -0.07514725 46.35830482 -0.10580127 52.49302101 -0.14617157 C57.21306629 -0.17200565 61.93292035 -0.1749301 66.65302658 -0.17127991 C68.91527673 -0.17297385 71.17753544 -0.18264261 73.43971634 -0.20042419 C76.59967401 -0.22253797 79.75801702 -0.21295111 82.91796875 -0.1953125 C83.85212112 -0.20857574 84.7862735 -0.22183899 85.74873352 -0.23550415 C90.29768709 -0.17644992 92.21256457 -0.06036665 95.90756226 2.8157959 C97.88353119 5.49300619 98.51222698 6.64613246 98.45458984 9.91992188 C98.47392578 11.01820312 98.47392578 11.01820312 98.49365234 12.13867188 C97.45550356 15.70501828 95.7322384 17.12687256 92.82958984 19.41992188 C89.75432723 20.14834134 86.75381118 20.1006385 83.60473633 20.06347656 C82.68384216 20.07235397 81.762948 20.08123138 80.81414795 20.09037781 C77.77595866 20.11404191 74.73892793 20.10287233 71.70068359 20.09179688 C69.58747605 20.10237609 67.474279 20.11528735 65.36109924 20.13043213 C59.80098966 20.16465642 54.24123085 20.17001408 48.68103027 20.16851807 C40.84140849 20.17174171 33.00188508 20.21443186 25.16236877 20.2522583 C20.98779198 20.27227234 16.81340145 20.28160678 12.63877869 20.28240967 C10.73420202 20.28623035 8.8296254 20.29007431 6.92504883 20.29394531 C6.058965 20.29184555 5.19288116 20.28974579 4.30055237 20.2875824 C3.50293488 20.29014542 2.70531738 20.29270844 1.88352966 20.29534912 C1.19314826 20.29530758 0.50276686 20.29526604 -0.20853519 20.29522324 C-2.2967944 20.42795498 -4.15991326 20.85334748 -6.17041016 21.41992188 C-6.19354645 31.94646426 -6.21133184 42.47300062 -6.22222233 52.99956322 C-6.22744833 57.88708772 -6.23454087 62.77459486 -6.24584961 67.66210938 C-6.2566885 72.37588294 -6.26268913 77.08963978 -6.2652874 81.80342484 C-6.26713983 83.60481657 -6.27075699 85.40620736 -6.27614021 87.20759201 C-6.28336391 89.72418978 -6.28440053 92.2407178 -6.28393555 94.75732422 C-6.28753082 95.50754349 -6.2911261 96.25776276 -6.29483032 97.03071594 C-6.35465121 100.85175348 -6.35465121 100.85175348 -5.17041016 104.41992188 C-1.17864869 105.75050903 2.65007693 105.55594588 6.81152344 105.54589844 C8.19001717 105.54870064 8.19001717 105.54870064 9.59635925 105.55155945 C11.59342544 105.55556475 13.59049621 105.55763841 15.58756638 105.55802155 C19.83118035 105.56143395 24.07464067 105.58279086 28.31820107 105.60325241 C36.22175754 105.64129975 44.12515011 105.67253461 52.02880859 105.67041016 C57.52435144 105.6696239 63.01933236 105.69294962 68.51472855 105.73229218 C70.60946757 105.74276634 72.70427134 105.74426584 74.79902267 105.73664093 C77.72959124 105.72703715 80.65845284 105.74816721 83.58886719 105.77636719 C84.88731316 105.76107216 84.88731316 105.76107216 86.21199036 105.74546814 C90.59955315 105.82120745 92.30730711 106.00746105 95.8656311 108.81756592 C97.88785365 111.49712469 98.51267903 112.62045607 98.45458984 115.91992188 C98.47392578 117.01820313 98.47392578 117.01820313 98.49365234 118.13867188 C97.44676973 121.73502155 95.77916218 123.12320314 92.82958984 125.41992188 C89.5141083 126.16404495 86.26081178 126.11361136 82.8737793 126.08276367 C81.37522148 126.09831551 81.37522148 126.09831551 79.84638977 126.11418152 C76.54479834 126.14127591 73.24453369 126.13158061 69.94287109 126.11914062 C67.6422641 126.12505037 65.34166019 126.13229743 63.0410614 126.14082336 C58.21658322 126.15271003 53.39256612 126.14598859 48.56811523 126.12670898 C42.40210055 126.10388129 36.23746938 126.13053297 30.07159138 126.17177105 C25.31783269 126.19742485 20.56440129 126.19474737 15.81059837 126.18387794 C13.53853287 126.18239602 11.26644169 126.19002583 8.99444008 126.20712852 C5.80624922 126.22722308 2.62045585 126.20859837 -0.56762695 126.18041992 C-1.49629578 126.19413635 -2.4249646 126.20785278 -3.3817749 126.22198486 C-10.48005093 126.09739538 -15.61866727 123.85485848 -21.17041016 119.41992188 C-26.50205044 112.87923265 -27.32002316 107.22131639 -27.33154297 98.92285156 C-27.33650787 98.06705002 -27.34147278 97.21124847 -27.34658813 96.32951355 C-27.36118404 93.50026645 -27.36800794 90.67107544 -27.37353516 87.84179688 C-27.37928928 85.87127685 -27.38504699 83.90075683 -27.39080811 81.93023682 C-27.40131117 77.79772684 -27.4071582 73.66523628 -27.41064453 69.53271484 C-27.41612388 64.24909725 -27.44014298 58.96573805 -27.46861649 53.68220139 C-27.48728326 49.61058819 -27.49245065 45.5390367 -27.49398041 41.46738434 C-27.49699898 39.52022135 -27.50500055 37.57305924 -27.51816559 35.62593842 C-27.53530852 32.89528521 -27.53332565 30.16525618 -27.52685547 27.43457031 C-27.53607025 26.63740097 -27.54528503 25.84023163 -27.55477905 25.01890564 C-27.50872131 18.78257914 -26.29738636 13.39452968 -22.59228516 8.21289062 C-22.04056641 7.68308594 -21.48884766 7.15328125 -20.92041016 6.60742188 C-20.37900391 6.06472656 -19.83759766 5.52203125 -19.27978516 4.96289062 C-13.07416891 0.42359726 -7.4568913 -0.02349543 0 0 Z " fill="#100C1D" transform="translate(511.17041015625,27.580078125)"/>
<path d="M0 0 C2.6169525 1.99009526 4.66464997 3.6132155 5.46300316 6.91467285 C5.6414664 9.2670978 5.6609544 11.57453712 5.62768555 13.93359375 C5.63495667 14.82362091 5.64222778 15.71364807 5.64971924 16.63064575 C5.66829087 19.56667001 5.65225209 22.50147543 5.63671875 25.4375 C5.64475909 27.48104948 5.65527731 29.52459059 5.66816711 31.56811523 C5.69672343 36.94538092 5.69728986 42.32226126 5.69030762 47.69958496 C5.68298599 56.30631928 5.71432264 64.91292864 5.75275612 73.51956177 C5.76160762 76.52476844 5.75630386 79.52970597 5.74919128 82.53491211 C5.75257605 84.37874423 5.7563254 86.22257574 5.76049805 88.06640625 C5.75480301 88.90084259 5.74910797 89.73527893 5.74324036 90.59500122 C5.76958 95.77070696 6.00111681 99.76660012 9.60243225 103.79043579 C13.11658783 105.5633145 16.51465178 105.39818791 20.36108398 105.35302734 C21.20219727 105.35518753 22.04331055 105.35734772 22.90991211 105.35957336 C24.73398825 105.36265838 26.55808519 105.35906023 28.38213921 105.34955978 C31.26988626 105.33582433 34.1569459 105.34225693 37.04469299 105.35440063 C45.25388088 105.38536949 53.46290911 105.38047612 61.67211914 105.36035156 C66.69545335 105.34943668 71.71827084 105.36261827 76.74153328 105.39024734 C78.65487407 105.39568934 80.5682665 105.39162033 82.48156548 105.37784958 C85.15812429 105.3588089 87.83299195 105.37019487 90.50952148 105.38818359 C91.29877518 105.37484482 92.08802887 105.36150604 92.90119934 105.34776306 C96.96798362 105.40851595 98.77002669 105.81302173 101.96815491 108.41323853 C104.91974065 112.17093065 105.55365886 114.20162324 105 119 C102.94696376 122.43229611 100.87134276 124.70955241 97 126 C95.57954876 126.09645626 94.15506872 126.13912717 92.73136902 126.14717102 C91.86084396 126.15432632 90.99031891 126.16148163 90.09341431 126.16885376 C88.66501724 126.17288712 88.66501724 126.17288712 87.20776367 126.17700195 C86.20259201 126.18357315 85.19742035 126.19014435 84.16178894 126.19691467 C80.83051481 126.21664926 77.49928574 126.22831 74.16796875 126.23828125 C73.03082239 126.24235678 71.89367603 126.2464323 70.72207069 126.25063133 C64.70460822 126.27149166 58.68716855 126.28579418 52.66967773 126.29516602 C46.45199073 126.30623693 40.23466096 126.34064517 34.01710033 126.38033772 C29.23785227 126.40646943 24.45868983 126.41485476 19.6793766 126.41844749 C17.38724667 126.42332148 15.09512077 126.43495843 12.80306053 126.45348549 C9.59522457 126.47780537 6.38831965 126.47692476 3.18041992 126.4699707 C2.23422791 126.48278076 1.28803589 126.49559082 0.31317139 126.50878906 C-5.42067778 126.4634927 -8.6151713 125.78735253 -13 122 C-14.1941573 119.6116854 -14.13348014 118.13180114 -14.14717102 115.46525574 C-14.15432632 114.51051865 -14.16148163 113.55578156 -14.16885376 112.57211304 C-14.17154266 111.52117462 -14.17423157 110.47023621 -14.17700195 109.38745117 C-14.18357315 108.28328354 -14.19014435 107.17911591 -14.19691467 106.04148865 C-14.21667961 102.37531472 -14.22831684 98.7091818 -14.23828125 95.04296875 C-14.24235678 93.79333155 -14.2464323 92.54369434 -14.25063133 91.25618935 C-14.2693508 85.32576209 -14.28391409 79.39534793 -14.2922433 73.46489829 C-14.30201514 66.62035112 -14.32833273 59.7761274 -14.36874419 52.93169421 C-14.40254756 47.00288869 -14.4143887 41.07416241 -14.41844749 35.14525795 C-14.42332756 32.62343463 -14.43498162 30.10161512 -14.45348549 27.57985497 C-14.47775605 24.0532169 -14.47693366 20.52742792 -14.4699707 17.00073242 C-14.48278076 15.9558667 -14.49559082 14.91100098 -14.50878906 13.83447266 C-14.45772418 6.75111803 -14.45772418 6.75111803 -12.09562683 2.87495422 C-8.54864046 -0.29852923 -4.64047003 -1.12040177 0 0 Z " fill="#100C1D" transform="translate(14,26)"/>
</svg>
