<?xml version="1.0" encoding="UTF-8"?>
<svg version="1.1" xmlns="http://www.w3.org/2000/svg" width="751" height="186">
<path d="M0 0 C1.65 0 3.3 0 5 0 C5.30352386 0.60926834 5.60704773 1.21853668 5.91976929 1.8462677 C8.82833378 7.68371708 11.73899264 13.52011719 14.65181541 19.355443 C16.14804019 22.35303705 17.64331317 25.3510965 19.13720703 28.34985352 C25.10246874 40.32302178 31.09080209 52.27401814 37.36654663 64.08784485 C42.91284516 74.55892145 48.12773393 85.19856262 53.39550781 95.81152344 C59.49133741 108.08434644 65.70256645 120.28198837 72.14306641 132.37792969 C74.13614081 136.15057537 74.44832742 138.66616823 74 143 C69.82906285 147.36427045 64.42477687 148.97004102 58.87890625 150.96875 C57.41263039 151.51202942 57.41263039 151.51202942 55.91673279 152.06628418 C52.80186352 153.21979331 49.68274484 154.36111906 46.5625 155.5 C43.44604707 156.63943127 40.33080775 157.78171184 37.21897888 158.93371582 C35.28623739 159.64912826 33.35083854 160.3574145 31.41249084 161.05749512 C24.29639586 163.68991339 18.74803491 166.22707007 14.4375 172.75 C13.56738281 174.05324219 13.56738281 174.05324219 12.6796875 175.3828125 C10.4201653 178.90346337 8.18149806 182.43027589 6 186 C4.68 185.67 3.36 185.34 2 185 C2 146.39 2 107.78 2 68 C3.485 68.495 3.485 68.495 5 69 C9.62 95.4 14.24 121.8 19 149 C34.94817469 144.93400644 34.94817469 144.93400644 47 136 C46.69376893 131.3841516 44.42909331 127.49074391 42.3515625 123.4453125 C41.98334381 122.71585419 41.61512512 121.98639587 41.23574829 121.23483276 C40.44686364 119.67316905 39.65534894 118.11283163 38.8614502 116.55371094 C36.77803569 112.461341 34.71404311 108.35919218 32.6484375 104.2578125 C32.03645508 103.04439178 32.03645508 103.04439178 31.41210938 101.80645752 C28.27512276 95.57628361 25.22821385 89.30772195 22.25 83 C16.05185886 69.89149761 9.52149863 56.94981251 3 44 C0.86354639 46.71659963 -0.82684405 49.40508201 -2.36914062 52.49536133 C-3.03629089 53.82504692 -3.03629089 53.82504692 -3.71691895 55.18159485 C-4.42938782 56.61731087 -4.42938782 56.61731087 -5.15625 58.08203125 C-5.65862183 59.08723312 -6.16099365 60.092435 -6.67858887 61.12809753 C-7.74627928 63.26650101 -8.81202391 65.40587694 -9.87597656 67.54614258 C-11.46235104 70.7367776 -13.05480577 73.92431289 -14.6484375 77.11132812 C-20.32509858 88.48531339 -25.91409016 99.89583278 -31.34570312 111.38911438 C-34.38246411 117.79587066 -37.61120075 124.0588382 -41.05078125 130.2578125 C-42.25476358 132.97008667 -42.25476358 132.97008667 -41.41015625 135.75 C-39.7778304 138.35448668 -38.99257022 138.88512701 -36.125 139.875 C-35.24972656 140.18953125 -34.37445313 140.5040625 -33.47265625 140.828125 C-32.32667969 141.21484375 -31.18070313 141.6015625 -30 142 C-27.43007744 142.88810786 -24.86192293 143.7811517 -22.29443359 144.67626953 C-20.48838428 145.30346414 -18.68013034 145.92434971 -16.86962891 146.53857422 C-16.02706543 146.82748535 -15.18450195 147.11639648 -14.31640625 147.4140625 C-13.17860718 147.80005615 -13.17860718 147.80005615 -12.01782227 148.19384766 C-10 149 -10 149 -7 151 C-6 154.3125 -6 154.3125 -6 158 C-7.875 161 -7.875 161 -11 163 C-17.66266787 163.31954502 -24.13318888 160.88395916 -30.328125 158.7265625 C-31.75617462 158.23994644 -31.75617462 158.23994644 -33.21307373 157.74349976 C-35.21128028 157.06032576 -37.20795059 156.37264327 -39.203125 155.68066406 C-42.25137778 154.62452263 -45.30483471 153.58467321 -48.359375 152.546875 C-50.30761926 151.8785584 -52.25554737 151.20931929 -54.203125 150.5390625 C-55.11153137 150.22957672 -56.01993774 149.92009094 -56.95587158 149.60122681 C-66.36142379 146.32213204 -66.36142379 146.32213204 -69 144 C-70.52955838 139.15388898 -70.03126201 136.03583726 -67.77787781 131.51043701 C-67.43223282 130.86246155 -67.08658783 130.21448608 -66.73046875 129.546875 C-66.37543777 128.8471759 -66.0204068 128.14747681 -65.65461731 127.42657471 C-64.51559638 125.19202125 -63.35214846 122.97128418 -62.1875 120.75 C-61.44693753 119.30552211 -60.70799207 117.860214 -59.97070312 116.4140625 C-56.49769875 109.62717138 -52.94129893 102.88429414 -49.38226318 96.14224243 C-43.81483188 85.59441816 -38.36753641 74.98852753 -32.95684814 64.35952759 C-30.34510363 59.22915402 -27.729259 54.10087227 -25.11328125 48.97265625 C-24.33479828 47.44637856 -24.33479828 47.44637856 -23.54058838 45.88926697 C-18.05726564 35.14379636 -12.53511317 24.41847689 -7.00170898 13.69873047 C-6.67354691 13.06290543 -6.34538483 12.42708038 -6.00727844 11.77198792 C-5.14083334 10.09363416 -4.27381135 8.41557825 -3.40673828 6.73754883 C-2.25625796 4.49868457 -1.11932868 2.25455115 0 0 Z " fill="#FFFFFF" transform="translate(219,0)"/>
<path d="M0 0 C1.29533409 -0.01279495 1.29533409 -0.01279495 2.61683655 -0.02584839 C3.56132156 -0.02494202 4.50580658 -0.02403564 5.47891235 -0.02310181 C6.97444893 -0.03317764 6.97444893 -0.03317764 8.50019836 -0.04345703 C11.80386303 -0.06249147 15.10732513 -0.06636401 18.41104126 -0.06851196 C20.70406173 -0.07493617 22.99708137 -0.08166424 25.2901001 -0.08868408 C30.10028992 -0.10067053 34.91040786 -0.1043635 39.72061157 -0.10317993 C45.88685972 -0.10297668 52.05264728 -0.13027926 58.21878624 -0.16472435 C62.95597453 -0.18695306 67.69305129 -0.1910187 72.43028641 -0.18996048 C74.70369682 -0.1923225 76.97711004 -0.20117964 79.25046921 -0.21662521 C82.42981028 -0.23620288 85.60814917 -0.23047896 88.7875061 -0.21841431 C89.72794266 -0.22965332 90.66837921 -0.24089233 91.63731384 -0.25247192 C95.87782789 -0.21154492 98.15269548 -0.11222794 101.82354736 2.17279053 C104.82476647 5.41481001 104.96448172 7.72455462 105.28604126 12.09945679 C104.44067478 15.60078811 102.51806318 17.02661176 99.76260376 19.26742554 C96.95293981 19.75609228 94.74818471 19.94086126 91.94644165 19.89511108 C91.17506363 19.9023822 90.40368561 19.90965332 89.6089325 19.91714478 C87.06723788 19.9356981 84.52695469 19.9196844 81.98526001 19.90414429 C80.21314744 19.91218701 78.44104454 19.92270663 76.66896057 19.93559265 C72.00719831 19.96413506 67.34588061 19.96471866 62.68405151 19.95773315 C55.22652587 19.95040952 47.76914431 19.98181753 40.31173515 20.02018166 C37.71151841 20.02901265 35.11161426 20.02373762 32.51139832 20.01661682 C30.91031815 20.02000276 29.30923871 20.02375245 27.7081604 20.02792358 C26.6302121 20.01938103 26.6302121 20.01938103 25.53048706 20.01066589 C21.23725839 20.0357423 17.72094528 20.58390759 13.76260376 22.26742554 C10.01695097 26.43979827 10.30995969 30.95312009 10.38760376 36.26742554 C10.3760022 37.06148804 10.36440063 37.85555054 10.35244751 38.67367554 C10.3780446 43.79309365 10.97035625 47.47517803 14.76260376 51.26742554 C16.69929348 51.38054815 18.64006818 51.42426347 20.57998657 51.44100952 C22.44762665 51.46124428 22.44762665 51.46124428 24.35299683 51.48188782 C25.02284859 51.48694777 25.69270035 51.49200771 26.38285065 51.49722099 C28.47630202 51.51360202 30.56957167 51.53684099 32.66293335 51.56211853 C38.61647501 51.63295557 44.5700933 51.69288873 50.52383423 51.74423218 C54.16257618 51.77609429 57.80111371 51.81739502 61.43968964 51.86442757 C62.8254807 51.88041295 64.21131893 51.89275049 65.5971756 51.90133476 C67.5407402 51.91354139 69.48421002 51.93873139 71.42764282 51.96444702 C72.53271179 51.97475449 73.63778076 51.98506195 74.77633667 51.99568176 C78.51343999 52.33574999 81.36694575 53.37021681 84.51260376 55.39242554 C86.53734529 58.42953784 86.88810456 61.69762504 86.76260376 65.26742554 C85.18829612 68.8883331 84.0737745 70.05997838 80.76260376 72.26742554 C78.04376221 72.52571106 78.04376221 72.52571106 74.71817017 72.53866577 C73.47322784 72.54885239 72.22828552 72.559039 70.94561768 72.5695343 C70.28075977 72.57047529 69.61590187 72.57141628 68.93089676 72.57238579 C66.84558527 72.57605195 64.76074834 72.59278518 62.67553711 72.61314392 C56.74761796 72.66852872 50.81962866 72.69921535 44.89151001 72.72372437 C41.26338342 72.73962777 37.63559298 72.76987675 34.00764084 72.80848885 C32.62743075 72.82011594 31.24716046 72.826069 29.8669014 72.82616997 C27.93316234 72.8263627 25.99945561 72.84617753 24.06582642 72.86679077 C22.41727158 72.87439674 22.41727158 72.87439674 20.7354126 72.88215637 C16.7993928 73.39225545 13.95893371 74.76026666 11.46963501 77.89633179 C10.35283104 81.6416357 10.43449511 85.31837072 10.45010376 89.20492554 C10.43399048 90.00349976 10.4178772 90.80207397 10.40127563 91.62484741 C10.39738396 96.32210423 10.70187045 99.46198826 13.76260376 103.26742554 C16.83274608 104.8024967 20.05288181 104.41164571 23.42178345 104.40927124 C24.60745407 104.41448288 24.60745407 104.41448288 25.81707764 104.4197998 C27.53695723 104.42716129 29.25684636 104.43250458 30.97673798 104.43609047 C33.70062484 104.44324922 36.42433085 104.4589121 39.14816284 104.47743225 C46.8939666 104.52992404 54.63967291 104.57786583 62.38565063 104.59335327 C67.12140845 104.60344366 71.85671383 104.63279733 76.59229279 104.67467308 C78.39592311 104.6869755 80.19961737 104.69210572 82.00328827 104.68987465 C84.53129699 104.68751753 87.05801225 104.70971888 89.58584595 104.73739624 C90.32789276 104.73079483 91.06993958 104.72419342 91.83447266 104.71739197 C96.92189722 104.80861384 99.84519758 106.0556407 103.76260376 109.26742554 C105.36347003 112.46915808 105.26177465 115.79319613 104.76260376 119.26742554 C102.96896465 122.07746014 101.74379441 123.77683021 98.76260376 125.26742554 C97.40797542 125.36927639 96.04856867 125.41113173 94.69015503 125.42132568 C93.83783295 125.42992615 92.98551086 125.43852661 92.10736084 125.4473877 C91.17020233 125.45164764 90.23304382 125.45590759 89.26748657 125.46029663 C87.78920883 125.47256287 87.78920883 125.47256287 86.28106689 125.4850769 C83.00929375 125.50995381 79.73756407 125.5264531 76.46572876 125.54086304 C75.34973045 125.54618671 74.23373215 125.55151039 73.08391571 125.55699539 C67.1766885 125.58373733 61.2694825 125.60310865 55.36221313 125.61752319 C49.25763188 125.63417076 43.15359052 125.67894705 37.04921341 125.72989464 C32.35832086 125.76353685 27.66755689 125.77509739 22.97655487 125.78075027 C20.72627386 125.7874714 18.47600156 125.80271565 16.22583771 125.82664108 C13.07520973 125.85822856 9.92604356 125.85833853 6.77529907 125.85092163 C5.84623749 125.86732697 4.9171759 125.8837323 3.95996094 125.90063477 C-0.3307551 125.85930523 -3.3368475 125.66099473 -6.8006897 122.98095703 C-10.10289827 119.30359711 -10.35936772 116.59146485 -10.37783813 111.77137756 C-10.38354828 110.87568054 -10.38925842 109.97998352 -10.3951416 109.05714417 C-10.39625946 108.08199356 -10.39737732 107.10684296 -10.39852905 106.10214233 C-10.40349396 105.06917023 -10.40845886 104.03619812 -10.41357422 102.97192383 C-10.42818325 99.55349054 -10.43499567 96.13510366 -10.44052124 92.71664429 C-10.4462736 90.34016417 -10.45203132 87.96368407 -10.45779419 85.58720398 C-10.4683005 80.60308618 -10.47414564 75.61898449 -10.47763062 70.63485718 C-10.48311542 64.25257783 -10.50714494 57.87051181 -10.53560257 51.48829937 C-10.55423802 46.57862223 -10.55943504 41.6689964 -10.56096649 36.75928688 C-10.56399133 34.40659226 -10.57201415 32.05389851 -10.58515167 29.70123863 C-10.60223116 26.4076253 -10.60032705 23.11453215 -10.59384155 19.82089233 C-10.60305634 18.85181442 -10.61227112 17.88273651 -10.62176514 16.8842926 C-10.58707616 11.2525095 -10.01529717 7.2142793 -7.23739624 2.26742554 C-4.14759331 0.20755692 -3.49401251 0.01560825 0 0 Z " fill="#FFFFFF" transform="translate(646.2373962402344,26.732574462890625)"/>
<path d="M0 0 C3.47152175 2.06701295 5.70231541 4.31008383 8.3828125 7.328125 C8.8571875 7.85929932 9.3315625 8.39047363 9.8203125 8.93774414 C13.58822409 13.18990308 17.19969017 17.56576065 20.765625 21.98828125 C23.2863989 25.09438739 25.85694833 28.15336468 28.4453125 31.203125 C28.90534668 31.74557861 29.36538086 32.28803223 29.83935547 32.84692383 C31.24893636 34.50795275 32.65945606 36.16817942 34.0703125 37.828125 C39.26250272 43.93700535 44.45154831 50.04323141 49.5078125 56.265625 C53.4583034 61.12070057 57.51467029 65.87603631 61.61108398 70.60791016 C64.02763482 73.40789894 66.40729102 76.22252422 68.6953125 79.12890625 C69.8709375 80.61970703 69.8709375 80.61970703 71.0703125 82.140625 C71.7509375 83.02363281 72.4315625 83.90664062 73.1328125 84.81640625 C74.9139272 86.90241283 74.9139272 86.90241283 77.1328125 87.80859375 C79.11463605 88.0054788 79.11463605 88.0054788 80.66835022 86.80465698 C82.79295604 83.80931865 82.47665561 80.76159456 82.43920898 77.22314453 C82.44297546 76.45045227 82.44674194 75.67776001 82.45062256 74.88165283 C82.45705829 73.20381 82.45672193 71.52593072 82.45043755 69.84808731 C82.44133946 67.19143525 82.45153651 64.53549084 82.46705627 61.87887573 C82.50719001 54.32600023 82.50835909 46.7731792 82.50610352 39.22021484 C82.5060524 34.6000669 82.52522721 29.98029978 82.55543709 25.3602562 C82.56626565 22.74489542 82.5541291 20.13026062 82.54161072 17.5149231 C82.55051615 15.90723961 82.56059089 14.29956204 82.57202148 12.69189453 C82.55740623 11.60384018 82.55740623 11.60384018 82.54249573 10.49380493 C82.61086932 5.67012313 83.64644569 3.21463999 87.0703125 -0.171875 C90.21942729 -1.74643239 92.59040066 -1.51986618 96.0703125 -1.171875 C98.83770879 0.44524993 100.26152324 1.30568934 102.0703125 3.828125 C102.95084636 7.34879223 102.87012185 10.78441925 102.81494141 14.39819336 C102.82224274 15.4621785 102.82954407 16.52616364 102.83706665 17.62239075 C102.8532738 21.13823374 102.8260631 24.65223164 102.796875 28.16796875 C102.79583764 30.61267597 102.79687365 33.05738488 102.79989624 35.50209045 C102.79971681 40.62591457 102.7788634 45.74910922 102.74267578 50.87280273 C102.69732457 57.43805105 102.69620872 64.00237865 102.70971107 70.56774044 C102.71639729 75.61642121 102.70311774 80.6648924 102.68345261 85.7135334 C102.67575796 88.13401759 102.67344831 90.55452512 102.6766243 92.97501945 C102.6773668 96.36001787 102.65209392 99.7438405 102.61962891 103.12866211 C102.62458374 104.12781647 102.62953857 105.12697083 102.63464355 106.15640259 C102.54695658 111.89042678 101.95270264 115.30771931 98.0703125 119.828125 C93.7555808 123.73192987 90.32237119 124.28663481 84.73046875 124.359375 C78.00220134 123.01569751 73.82496782 118.97533215 69.6953125 113.765625 C69.22472412 113.19126709 68.75413574 112.61690918 68.26928711 112.02514648 C66.8593873 110.30082401 65.46401074 108.56555137 64.0703125 106.828125 C62.5925928 105.0144451 61.11351749 103.2018685 59.6328125 101.390625 C58.91222656 100.50503906 58.19164062 99.61945313 57.44921875 98.70703125 C54.19109433 94.7641122 50.85084195 90.8942979 47.51196289 87.01977539 C43.73696859 82.6301215 40.06302789 78.16697729 36.4140625 73.671875 C33.67728845 70.35125582 30.87914555 67.08778016 28.0703125 63.828125 C22.19471109 57.00472651 16.32796111 50.1598534 10.9140625 42.9609375 C10.223125 42.05085938 9.5321875 41.14078125 8.8203125 40.203125 C8.21703125 39.38585937 7.61375 38.56859375 6.9921875 37.7265625 C4.68707689 35.44956299 3.28627155 34.96475071 0.0703125 34.828125 C-2.41667427 37.31511177 -2.17057457 38.76804194 -2.19755554 42.16178894 C-2.19343155 42.90415298 -2.18930756 43.64651703 -2.18505859 44.41137695 C-2.19048927 45.58482666 -2.19048927 45.58482666 -2.19602966 46.78198242 C-2.20293247 48.48385258 -2.20542745 50.18574493 -2.20408249 51.88762856 C-2.20311946 54.58191078 -2.21603337 57.27579159 -2.23306274 59.97001648 C-2.27939923 67.63126487 -2.30393807 75.29247383 -2.31054688 82.95385742 C-2.3155621 87.63771535 -2.3398155 92.32115649 -2.37587357 97.00487328 C-2.3856744 98.78980189 -2.38800196 100.57478784 -2.38270187 102.35973549 C-2.37563006 104.85917264 -2.39291579 107.35736947 -2.41552734 109.85668945 C-2.40735489 110.5929808 -2.39918243 111.32927216 -2.39076233 112.08787537 C-2.46875093 116.93827488 -3.47864712 119.42421128 -6.9296875 122.828125 C-10.14898323 124.43777287 -13.44856462 124.43498742 -16.9296875 123.828125 C-20.14923395 121.29358843 -21.63401185 119.71515195 -22.9296875 115.828125 C-23.02412444 114.40986055 -23.06452973 112.98761718 -23.07012939 111.56622314 C-23.07583954 110.69714325 -23.08154968 109.82806335 -23.08743286 108.93264771 C-23.08855072 107.98195404 -23.08966858 107.03126038 -23.09082031 106.05175781 C-23.09578522 105.04819244 -23.10075012 104.04462708 -23.10586548 103.01065063 C-23.12049327 99.68417682 -23.12729057 96.35775072 -23.1328125 93.03125 C-23.13856396 90.72060138 -23.1443217 88.40995278 -23.15008545 86.0993042 C-23.16059755 81.25044533 -23.16643868 76.40160304 -23.16992188 71.55273438 C-23.17540342 65.34417899 -23.19942349 59.13584326 -23.22789383 52.92735672 C-23.24653317 48.15235762 -23.25172653 43.37741125 -23.25325775 38.60237885 C-23.25628246 36.31387889 -23.26430484 34.02537983 -23.27744293 31.73691559 C-23.29452819 28.53179815 -23.29261676 25.32721502 -23.28613281 22.12207031 C-23.2953476 21.17947357 -23.30456238 20.23687683 -23.3140564 19.26571655 C-23.27498674 13.08967273 -22.61497382 7.94697317 -18.4296875 3.0859375 C-12.58262765 -1.32981082 -6.90813267 -2.76325307 0 0 Z " fill="#FFFFFF" transform="translate(342.9296875,26.171875)"/>
<path d="M0 0 C0.98785492 -0.00686325 1.97570984 -0.0137265 2.99349976 -0.02079773 C6.24304772 -0.03902775 9.49211134 -0.03523473 12.74169922 -0.02954102 C15.00658322 -0.03410348 17.27146583 -0.03940924 19.53634644 -0.04542542 C24.27559039 -0.05434819 29.01466573 -0.05194141 33.75390625 -0.04199219 C39.82814586 -0.03048293 45.90180584 -0.05074866 51.97596931 -0.07990932 C56.64968562 -0.0982462 61.32326222 -0.0979842 65.99700546 -0.0922718 C68.23691498 -0.09211839 70.47683385 -0.09817897 72.71670914 -0.11056328 C75.84536546 -0.12542966 78.97294019 -0.1148289 82.1015625 -0.09765625 C83.02636414 -0.10732422 83.95116577 -0.11699219 84.9039917 -0.12695312 C89.10769955 -0.07860249 91.33531504 0.03788616 94.97262573 2.31040955 C97.56169222 5.09196226 97.89427605 5.91606077 98.10888672 9.77905273 C97.93652173 13.11144252 97.80242517 14.73099809 95.92138672 17.40405273 C91.9837142 20.02916774 88.60263909 19.70390082 84.03125 19.70703125 C83.12200775 19.71547058 82.2127655 19.72390991 81.27597046 19.73260498 C78.26454151 19.75843435 75.25321074 19.770537 72.24169922 19.78295898 C70.15045391 19.79913101 68.05921617 19.81631069 65.96798706 19.8344574 C60.45602929 19.88020078 54.9440614 19.91497107 49.43200684 19.94665527 C40.6159436 19.99846772 31.7999923 20.0637475 22.98406601 20.13487053 C19.90362269 20.15768551 16.82319344 20.17397113 13.7427063 20.18959045 C11.85190683 20.20300115 9.96110879 20.2166163 8.0703125 20.23046875 C6.78589264 20.23438881 6.78589264 20.23438881 5.4755249 20.23838806 C1.4947691 20.27299718 -2.19305856 20.41835067 -6.07861328 21.40405273 C-6.12488581 31.93058092 -6.16045655 42.45708503 -6.18223763 52.98369408 C-6.19268968 57.87124592 -6.20687472 62.75872835 -6.22949219 67.64624023 C-6.25117 72.36001903 -6.26317119 77.07373092 -6.26836777 81.78755569 C-6.27207265 83.58895547 -6.27930703 85.39035146 -6.29007339 87.19172287 C-6.30452115 89.70838175 -6.30659406 92.22476163 -6.30566406 94.74145508 C-6.31285461 95.49167435 -6.32004517 96.24189362 -6.32745361 97.0148468 C-6.44627397 101.16467419 -6.44627397 101.16467419 -4.07861328 104.40405273 C-1.12812235 104.60626078 1.73015091 104.68403214 4.68212891 104.67529297 C6.0433638 104.68313309 6.0433638 104.68313309 7.43209839 104.69113159 C9.40733861 104.70139077 11.38260602 104.70715532 13.35787201 104.70901299 C16.48506873 104.71266612 19.61194529 104.72936503 22.73907471 104.74977112 C31.63181603 104.80527653 40.52460552 104.83584351 49.41748047 104.86035156 C54.85339817 104.87623764 60.28909067 104.90647258 65.72489166 104.94511604 C67.79647681 104.95676181 69.86810228 104.96269636 71.93972015 104.96279716 C74.84107407 104.96298948 77.74180877 104.98127682 80.64306641 105.00341797 C81.49732208 104.99884079 82.35157776 104.99426361 83.23171997 104.98954773 C88.19942209 105.04973641 91.60425057 105.67473295 95.92138672 108.40405273 C98.5513715 111.75130609 98.3548167 115.28646794 97.92138672 119.40405273 C96.12576267 122.15734295 94.8688375 123.93032734 91.92138672 125.40405273 C90.58610269 125.50371477 89.24606449 125.54339896 87.90708923 125.55122375 C86.64773056 125.56195671 86.64773056 125.56195671 85.3629303 125.57290649 C83.97828835 125.57693985 83.97828835 125.57693985 82.56567383 125.58105469 C81.59472778 125.58762589 80.62378174 125.59419708 79.62341309 125.60096741 C76.39851814 125.62073439 73.17366992 125.63237296 69.94873047 125.64233398 C68.29689853 125.64844728 68.29689853 125.64844728 66.61169624 125.65468407 C60.77881176 125.67556314 54.94595091 125.68985473 49.11303711 125.69921875 C43.09627012 125.71026371 37.07987495 125.74463655 31.0632391 125.78439045 C26.43141509 125.81058268 21.7996791 125.81891312 17.16778755 125.82250023 C14.95070457 125.82736245 12.73362543 125.83896597 10.51661491 125.85753822 C7.40506811 125.88197567 4.29447541 125.88095549 1.18286133 125.87402344 C0.27393631 125.8868335 -0.63498871 125.89964355 -1.57145691 125.9128418 C-8.44766383 125.85727738 -14.68960819 124.43538898 -19.9369669 119.74182606 C-25.97284049 113.42288502 -27.53323441 106.08445358 -27.46679688 97.63647461 C-27.47205383 96.7995961 -27.47731079 95.96271759 -27.48272705 95.10047913 C-27.49583831 92.35772562 -27.48722067 89.61556126 -27.47705078 86.87280273 C-27.47907407 84.95283905 -27.48198763 83.03287611 -27.48574829 81.11291504 C-27.49015963 77.09839527 -27.48377899 73.08407641 -27.46972656 69.06958008 C-27.45263546 63.93848425 -27.46248303 58.80785928 -27.48044395 53.6767807 C-27.49131398 49.71495045 -27.48782069 45.75323078 -27.48006058 41.79139709 C-27.47806747 39.90006962 -27.48048642 38.00873191 -27.48749924 36.11741638 C-27.49516688 33.46855286 -27.4834357 30.82043894 -27.46679688 28.17163086 C-27.47286957 27.39944717 -27.47894226 26.62726349 -27.48519897 25.8316803 C-27.40360394 18.77638077 -25.61195214 12.48957299 -20.82861328 7.09155273 C-20.28720703 6.45604492 -19.74580078 5.82053711 -19.18798828 5.16577148 C-13.29160336 0.24119815 -7.36262964 -0.03599658 0 0 Z " fill="#FFFFFF" transform="translate(509.07861328125,26.595947265625)"/>
<path d="M0 0 C0.7528125 0.04125 1.505625 0.0825 2.28125 0.125 C5.80599299 1.51503949 6.72874249 3.70608402 8.5 7 C9.05139519 10.05939467 9.02411825 13.05271974 8.98242188 16.15478516 C8.98633438 17.05631821 8.99024689 17.95785126 8.99427795 18.88670349 C9.00023826 20.83624194 8.99710953 22.78582504 8.9858551 24.73534012 C8.96857401 27.82048218 8.9761105 30.90468893 8.9901123 33.98983765 C9.01543415 40.53495578 9.00994248 47.07985279 9 53.625 C8.98848042 61.2172358 8.98956448 68.80901724 9.02406311 76.40119553 C9.03116811 79.44151896 9.01446833 82.48112594 8.99694824 85.52139282 C9.00265435 87.38226714 9.00947076 89.2431385 9.01757812 91.10400391 C9.00060631 92.37272087 9.00060631 92.37272087 8.98329163 93.66706848 C9.02059664 98.43868676 9.02059664 98.43868676 11.40515137 102.49349976 C15.40734182 105.37165563 18.76144689 105.14504888 23.54223633 105.1418457 C24.37330399 105.14532013 25.20437164 105.14879456 26.06062317 105.15237427 C27.868903 105.15973626 29.6771919 105.16507927 31.48548317 105.16866493 C34.34771208 105.17582045 37.20976856 105.19148028 40.07194519 105.21000671 C48.21110667 105.26251835 56.35017473 105.31045649 64.48950195 105.32592773 C69.46514824 105.33600662 74.44036257 105.36532988 79.41583824 105.40724754 C81.31240256 105.41956504 83.20902787 105.42467743 85.10563087 105.42244911 C87.7607497 105.42009738 90.41462875 105.44225252 93.06958008 105.4699707 C93.85262512 105.46336929 94.63567017 105.45676788 95.44244385 105.44996643 C100.40856355 105.5350624 103.02764712 106.42241559 106.5 110 C107.66962113 112.6626398 107.79886062 115.11654846 107.5 118 C104.63580247 123.43209877 104.63580247 123.43209877 101.5 125 C100.0796833 125.10016691 98.6548259 125.13937731 97.23100281 125.14717102 C95.88724579 125.15790398 95.88724579 125.15790398 94.51634216 125.16885376 C93.03811729 125.17288712 93.03811729 125.17288712 91.5300293 125.17700195 C90.49413666 125.18357315 89.45824402 125.19014435 88.39096069 125.19691467 C84.95204604 125.21667682 81.5131751 125.2283163 78.07421875 125.23828125 C76.90180948 125.24235678 75.72940022 125.2464323 74.52146339 125.25063133 C68.31712646 125.27150373 62.11281173 125.28580084 55.90844727 125.29516602 C49.49222044 125.30623758 43.07633975 125.34064315 36.6602354 125.38033772 C31.73347823 125.4064515 26.8068042 125.41485317 21.8799839 125.41844749 C19.51445997 125.42332638 17.14894006 125.43497714 14.78348351 125.45348549 C11.47475938 125.47776659 8.16693976 125.47693182 4.8581543 125.4699707 C3.87874374 125.48278076 2.89933319 125.49559082 1.89024353 125.50878906 C-2.39513147 125.47588301 -4.84341792 125.39202144 -8.58488464 123.15812683 C-11.3671005 120.02287199 -11.62561095 117.49382989 -11.64044189 113.45889282 C-11.64615204 112.52802353 -11.65186218 111.59715424 -11.65774536 110.63807678 C-11.65886322 109.61878586 -11.65998108 108.59949493 -11.66113281 107.54931641 C-11.66609772 106.47426346 -11.67106262 105.39921051 -11.67617798 104.2915802 C-11.69080663 100.7282345 -11.69760245 97.16493331 -11.703125 93.6015625 C-11.70887543 91.12918089 -11.71463318 88.6567993 -11.72039795 86.18441772 C-11.73090964 80.99761751 -11.73675136 75.81083281 -11.74023438 70.62402344 C-11.74572246 63.97358361 -11.76975654 57.32341414 -11.79820633 50.67302895 C-11.81681659 45.56527098 -11.82203743 40.45756242 -11.82357025 35.34977341 C-11.82660044 32.8977382 -11.83464123 30.44570394 -11.84775543 27.99370193 C-11.86478344 24.56546654 -11.86294347 21.13773302 -11.85644531 17.70947266 C-11.8656601 16.69423019 -11.87487488 15.67898773 -11.8843689 14.63298035 C-11.83298451 5.99217987 -11.83298451 5.99217987 -8.5 2 C-5.63065707 0.02438683 -3.43942634 -0.28269258 0 0 Z " fill="#FFFFFF" transform="translate(11.5,25)"/>
</svg>
