<?xml version="1.0" encoding="UTF-8"?>
<svg version="1.1" xmlns="http://www.w3.org/2000/svg" width="75" height="97">
<path d="M0 0 C1.91207886 0.18533325 1.91207886 0.18533325 4 1 C5.28689575 2.73873901 5.28689575 2.73873901 6.40673828 5.03466797 C6.83463654 5.89422089 7.26253479 6.7537738 7.70339966 7.63937378 C8.1544809 8.58080231 8.60556213 9.52223083 9.0703125 10.4921875 C9.55144501 11.46672882 10.03257751 12.44127014 10.52828979 13.44534302 C12.07380874 16.58224229 13.59996058 19.72810092 15.125 22.875 C17.12299353 26.95799645 19.12822312 31.03742635 21.1328125 35.1171875 C21.62259583 36.11780212 22.11237915 37.11841675 22.61700439 38.14935303 C26.92243749 46.91908537 31.43084884 55.5730139 36.04342651 64.18460083 C36.35909576 64.78368256 36.67476501 65.38276428 37 66 C37.36795685 66.68472382 37.7359137 67.36944763 38.11502075 68.07492065 C39 70 39 70 39.125 72.5 C37.37401636 76.39107475 33.75353918 77.40364924 30 79 C27.64488541 79.8262692 25.27411714 80.58121545 22.89453125 81.33374023 C13.32762987 84.3432375 13.32762987 84.3432375 6.5 91.4375 C5.83484375 92.73494141 5.83484375 92.73494141 5.15625 94.05859375 C4.7746875 94.69925781 4.393125 95.33992188 4 96 C3.01 96 2.02 96 1 96 C1 75.87 1 55.74 1 35 C1.66 35 2.32 35 3 35 C4.00024154 40.49866823 4.99706829 45.99794032 5.99072266 51.49780273 C6.32929992 53.36906698 6.66881299 55.24016216 7.00927734 57.11108398 C7.49822634 59.79887798 7.98381698 62.48726017 8.46875 65.17578125 C8.62186646 66.01337479 8.77498291 66.85096832 8.93273926 67.71394348 C9.49542609 70.84800322 10 73.80873414 10 77 C10.84304687 76.6390625 11.68609375 76.278125 12.5546875 75.90625 C14.19824219 75.21015625 14.19824219 75.21015625 15.875 74.5 C17.51082031 73.80390625 17.51082031 73.80390625 19.1796875 73.09375 C22 72 22 72 24 72 C23.37302153 67.66538406 21.81444795 64.29627521 19.83203125 60.40625 C19.51473557 59.77827515 19.19743988 59.15030029 18.87052917 58.5032959 C17.85686419 56.49925646 16.83518687 54.4994483 15.8125 52.5 C14.48245993 49.8870409 13.15606197 47.27225893 11.83203125 44.65625 C11.34731857 43.69984619 11.34731857 43.69984619 10.85281372 42.72412109 C7.74286655 36.55464508 4.84294018 30.29713591 2 24 C-1.05477979 27.68690689 -3.04136908 31.79405263 -5.16015625 36.0546875 C-5.55069687 36.83385529 -5.94123749 37.61302307 -6.34361267 38.415802 C-7.16667094 40.06056065 -7.98771944 41.70632637 -8.80688477 43.35302734 C-10.05606394 45.86207283 -11.31369545 48.36674825 -12.57226562 50.87109375 C-13.37290882 52.47370215 -14.1730555 54.07655873 -14.97265625 55.6796875 C-15.34665054 56.42362762 -15.72064484 57.16756775 -16.10597229 57.93405151 C-19.64145669 64.6633808 -19.64145669 64.6633808 -21 72 C-20.45472656 72.09796875 -19.90945312 72.1959375 -19.34765625 72.296875 C-13.48190953 73.45999743 -8.36881656 75.38539903 -3 78 C-3 79.65 -3 81.3 -3 83 C-6.06159943 84.61434313 -7.58276974 85.0803064 -11.03027344 84.41674805 C-12.12887695 84.03558838 -13.22748047 83.65442871 -14.359375 83.26171875 C-16.15568359 82.64973633 -16.15568359 82.64973633 -17.98828125 82.02539062 C-19.22964844 81.58388672 -20.47101562 81.14238281 -21.75 80.6875 C-23.01903452 80.2518057 -24.28856219 79.81754499 -25.55859375 79.38476562 C-34.81110007 76.18889993 -34.81110007 76.18889993 -36 75 C-36.80533756 69.03488343 -34.32193175 64.92057294 -31.625 59.8125 C-31.17020264 58.92812256 -30.71540527 58.04374512 -30.24682617 57.13256836 C-28.84440463 54.41460523 -27.4247668 51.70630572 -26 49 C-25.21221375 47.49480519 -24.42445191 45.9895976 -23.63671875 44.484375 C-22.46985921 42.26071843 -21.29994584 40.03881752 -20.1237793 37.82006836 C-17.40715577 32.69453288 -14.72813775 27.55072245 -12.0703125 22.39453125 C-11.55923195 21.40348137 -11.55923195 21.40348137 -11.03782654 20.39241028 C-9.66177512 17.72324903 -8.28616421 15.0538715 -6.91421509 12.38259888 C-5.95350512 10.51206022 -4.99058601 8.64267305 -4.02734375 6.7734375 C-3.18804321 5.14027588 -3.18804321 5.14027588 -2.33178711 3.47412109 C-1 1 -1 1 0 0 Z " fill="#FFFFFF" transform="translate(36,1)"/>
</svg>
